<svg width="146" height="24" viewBox="0 0 146 24" fill="none" xmlns="http://www.w3.org/2000/svg">
<path d="M40.0142 16.809V8.553C40.0142 6.976 40.3802 5.733 41.1122 4.823C41.8452 3.913 42.7622 3.458 43.8622 3.458C46.0202 3.458 47.0992 5.035 47.0992 8.189V16.809H50.8812V7.229C50.8812 4.814 50.3812 3.009 49.3782 1.812C48.3762 0.614998 46.9452 0.0169981 45.0842 0.0169981C43.8622 0.0169981 42.7442 0.250998 41.7322 0.719998C40.7259 1.18339 39.8473 1.88453 39.1722 2.763H39.1062C38.1262 0.931998 36.4862 0.0169981 34.1842 0.0169981C33.2152 0.0169981 32.2822 0.233998 31.3852 0.669998C30.4735 1.11728 29.6705 1.7582 29.0322 2.548H28.9822V0.264998H25.2002V16.792H28.9822V8.553C28.9822 6.976 29.3542 5.733 30.0972 4.823C30.8402 3.913 31.7902 3.458 32.9462 3.458C35.1362 3.458 36.2322 5.035 36.2322 8.189V16.809H40.0142V16.809ZM61.1152 17.057C63.3612 17.057 65.1122 16.23 66.3672 14.575H66.4172V16.792H70.0332V0.264998H66.2512V2.25H66.1852C64.9302 0.760998 63.2302 0.0169981 61.0822 0.0169981C60.0204 0.00945775 58.9684 0.219898 57.9912 0.635295C57.0141 1.05069 56.1325 1.66221 55.4012 2.432C54.6962 3.182 54.1412 4.092 53.7332 5.162C53.3206 6.26157 53.1135 7.42759 53.1222 8.602C53.1222 9.86 53.3252 11.018 53.7322 12.077C54.1402 13.136 54.6962 14.029 55.4012 14.757C56.1183 15.4934 56.9819 16.0712 57.9362 16.453C58.9465 16.8604 60.0269 17.0657 61.1162 17.057H61.1152ZM61.7102 13.616C60.3112 13.616 59.1722 13.15 58.2912 12.218C57.4112 11.286 56.9702 10.086 56.9702 8.619C56.9702 7.064 57.4242 5.815 58.3322 4.872C59.2412 3.929 60.3722 3.458 61.7262 3.458C63.0692 3.458 64.1842 3.951 65.0712 4.938C65.9572 5.926 66.4012 7.153 66.4012 8.619C66.4012 10.086 65.9462 11.286 65.0382 12.218C64.1292 13.15 63.0202 13.616 61.7102 13.616V13.616ZM88.8222 16.809V7.064C88.8222 4.671 88.2862 2.898 87.2122 1.745C86.1402 0.592998 84.6552 0.0169981 82.7622 0.0169981C81.7092 0.0112932 80.6671 0.231227 79.7062 0.661998C78.7503 1.09089 77.9035 1.73012 77.2292 2.532H77.1792V0.263998H73.3972V16.791H77.1792V8.487C77.1792 6.899 77.5672 5.664 78.3432 4.781C79.1202 3.899 80.1572 3.458 81.4562 3.458C82.0512 3.458 82.5602 3.535 82.9842 3.689C83.4082 3.844 83.7802 4.095 84.0992 4.442C84.4192 4.79 84.6552 5.261 84.8092 5.857C84.9632 6.452 85.0402 7.18 85.0402 8.04V16.809H88.8222V16.809ZM99.0402 17.057C101.286 17.057 103.036 16.23 104.292 14.575H104.342V16.792H107.958V0.264998H104.176V2.25H104.11C102.855 0.760998 101.154 0.0169981 99.0072 0.0169981C97.9453 0.00932063 96.893 0.219694 95.9157 0.635095C94.9383 1.0505 94.0566 1.66208 93.3252 2.432C92.6212 3.182 92.0652 4.092 91.6572 5.162C91.2449 6.26164 91.0382 7.42765 91.0472 8.602C91.0472 9.86 91.2502 11.018 91.6572 12.077C92.0652 13.136 92.6212 14.029 93.3252 14.757C94.0426 15.4935 94.9065 16.0713 95.8612 16.453C96.8712 16.8603 97.9512 17.0655 99.0402 17.057V17.057ZM99.6342 13.616C98.2362 13.616 97.0962 13.15 96.2162 12.218C95.3352 11.286 94.8942 10.086 94.8942 8.619C94.8942 7.064 95.3492 5.815 96.2572 4.872C97.1652 3.929 98.2972 3.458 99.6512 3.458C100.994 3.458 102.109 3.951 102.995 4.938C103.881 5.926 104.325 7.153 104.325 8.619C104.325 10.086 103.87 11.286 102.962 12.218C102.054 13.15 100.944 13.616 99.6342 13.616V13.616ZM118.704 23.741C119.904 23.741 120.978 23.601 121.924 23.319C122.871 23.038 123.667 22.646 124.311 22.144C124.959 21.6382 125.503 21.012 125.913 20.3C126.342 19.5588 126.651 18.7546 126.829 17.917C127.017 17.057 127.11 16.114 127.11 15.088V0.264998H123.328V2.002H123.262C122.585 1.354 121.785 0.847474 120.909 0.511998C120.027 0.171032 119.088 -0.00259515 118.142 -1.89222e-06C116.634 -1.89222e-06 115.28 0.357998 114.08 1.075C112.88 1.792 111.946 2.788 111.28 4.062C110.614 5.335 110.281 6.767 110.281 8.355C110.281 9.965 110.631 11.393 111.33 12.64C112.029 13.886 112.99 14.843 114.212 15.51C115.434 16.177 116.81 16.511 118.341 16.511C120.388 16.511 122.057 15.838 123.345 14.493H123.411V16.246C123.411 17.416 122.981 18.386 122.123 19.158C121.263 19.93 120.053 20.316 118.489 20.316C117.421 20.316 116.483 20.184 115.673 19.919C114.864 19.654 113.931 19.241 112.874 18.679L111.982 22.02C112.907 22.572 113.948 22.996 115.104 23.294C116.26 23.592 117.46 23.741 118.704 23.741V23.741ZM118.836 13.021C117.471 13.021 116.345 12.587 115.459 11.721C114.572 10.856 114.129 9.695 114.129 8.239C114.129 6.839 114.564 5.697 115.434 4.814C116.304 3.932 117.438 3.491 118.836 3.491C120.168 3.491 121.278 3.926 122.164 4.798C123.05 5.669 123.494 6.8 123.494 8.189C123.494 9.59 123.061 10.745 122.197 11.655C121.333 12.565 120.212 13.02 118.836 13.02V13.021ZM137.922 17.057C139.464 17.057 140.821 16.776 141.993 16.213C143.166 15.651 144.126 14.89 144.875 13.93L142.233 11.664C141.198 12.965 139.827 13.616 138.12 13.616C136.91 13.616 135.883 13.279 135.04 12.606C134.198 11.934 133.656 11.013 133.413 9.844H145.437C145.503 9.447 145.536 8.944 145.536 8.338C145.536 6.739 145.211 5.311 144.561 4.053C143.931 2.81592 142.956 1.78761 141.754 1.092C140.532 0.374998 139.122 0.0169981 137.526 0.0169981C136.433 0.00880797 135.349 0.219618 134.338 0.636998C133.348 1.051 132.494 1.627 131.778 2.366C131.063 3.105 130.501 4.004 130.094 5.062C129.687 6.122 129.483 7.274 129.483 8.52C129.483 10.208 129.852 11.705 130.589 13.012C131.327 14.319 132.335 15.32 133.612 16.015C134.889 16.71 136.326 17.057 137.922 17.057ZM141.737 6.783H133.48C133.744 5.724 134.256 4.905 135.015 4.326C135.775 3.747 136.678 3.458 137.724 3.458C138.781 3.458 139.654 3.756 140.342 4.351C141.03 4.947 141.495 5.757 141.737 6.783Z" fill="white"/>
<path fill-rule="evenodd" clip-rule="evenodd" d="M2.786 10.286C4.324 10.286 5.571 11.565 5.571 13.143C5.571 14.72 4.324 16 2.786 16C1.247 16 0 14.72 0 13.143C0 11.565 1.247 10.286 2.786 10.286V10.286ZM2.786 0C4.324 0 5.57 1.28 5.57 2.857C5.57 4.435 4.323 5.714 2.785 5.714C1.247 5.714 0 4.435 0 2.857C0 1.28 1.247 0 2.786 0ZM12.814 0C14.353 0 15.6 1.28 15.6 2.857C15.6 4.435 14.353 5.714 12.814 5.714C11.276 5.714 10.029 4.435 10.029 2.857C10.029 1.28 11.276 0 12.814 0Z" fill="#F3603C"/>
<path opacity="0.5" d="M12.8138 16.114C14.3525 16.114 15.5998 14.8349 15.5998 13.257C15.5998 11.6791 14.3525 10.4 12.8138 10.4C11.2752 10.4 10.0278 11.6791 10.0278 13.257C10.0278 14.8349 11.2752 16.114 12.8138 16.114Z" fill="#F3603C"/>
</svg>
